<svg id="svg" version="1.1" xmlns="http://www.w3.org/2000/svg" xmlns:xlink="http://www.w3.org/1999/xlink" width="400" height="72.65469061876247" viewBox="0, 0, 400,72.65469061876247"><g id="svgg"><path id="path0" d="M326.167 5.738 L 326.167 11.476 322.708 11.530 L 319.250 11.583 318.699 12.117 L 318.149 12.651 318.199 16.312 C 318.227 18.325,318.312 20.035,318.389 20.111 C 318.465 20.188,320.246 20.274,322.346 20.303 L 326.165 20.356 326.207 34.220 L 326.250 48.083 326.625 48.137 C 326.989 48.188,327.000 48.247,327.000 50.084 C 327.000 51.814,327.028 51.986,327.324 52.080 C 327.557 52.154,327.681 52.398,327.763 52.946 C 327.845 53.492,327.966 53.733,328.189 53.791 C 328.369 53.838,328.501 54.022,328.502 54.228 C 328.507 54.914,328.703 55.333,329.019 55.333 C 329.243 55.333,329.333 55.453,329.333 55.750 C 329.333 56.080,329.417 56.167,329.738 56.167 C 330.032 56.167,330.158 56.270,330.197 56.542 C 330.230 56.779,330.384 56.936,330.615 56.969 C 330.842 57.001,330.999 57.158,331.031 57.385 C 331.064 57.616,331.221 57.770,331.458 57.803 C 331.699 57.837,331.833 57.971,331.833 58.178 C 331.833 58.448,331.953 58.500,332.583 58.500 C 333.272 58.500,333.333 58.534,333.333 58.917 C 333.333 59.305,333.390 59.333,334.155 59.333 C 334.880 59.333,334.983 59.377,335.030 59.708 C 335.080 60.062,335.170 60.086,336.625 60.131 C 337.998 60.174,338.167 60.213,338.167 60.488 C 338.167 60.969,338.435 61.000,342.659 61.000 C 347.106 61.000,347.667 60.942,347.667 60.479 C 347.667 60.193,347.819 60.166,349.458 60.164 C 351.883 60.161,351.681 60.542,351.628 56.072 L 351.583 52.250 349.250 52.202 C 346.562 52.147,346.167 52.207,346.167 52.670 C 346.167 53.217,342.881 53.173,342.803 52.625 C 342.753 52.271,342.663 52.247,341.208 52.202 C 339.838 52.159,339.667 52.120,339.667 51.847 C 339.667 51.536,339.241 51.340,338.561 51.336 C 338.347 51.334,338.171 51.201,338.118 51.000 C 338.066 50.801,337.891 50.667,337.682 50.667 C 337.421 50.667,337.333 50.562,337.333 50.250 C 337.333 49.917,337.250 49.833,336.917 49.833 C 336.541 49.833,336.500 49.767,336.500 49.163 C 336.500 48.610,336.427 48.460,336.083 48.303 L 335.667 48.113 335.667 34.223 L 335.667 20.333 342.744 20.333 C 349.719 20.333,349.824 20.328,350.005 19.990 C 350.281 19.476,350.156 12.088,349.867 11.800 C 349.698 11.631,348.111 11.572,342.659 11.530 L 335.667 11.477 335.667 5.739 L 335.667 0.000 330.917 0.000 L 326.167 0.000 326.167 5.738 M216.049 0.830 C 215.967 1.144,215.791 1.162,212.440 1.205 C 208.946 1.250,208.916 1.253,208.864 1.619 C 208.815 1.965,208.717 1.991,207.281 2.036 C 205.837 2.081,205.747 2.105,205.697 2.458 C 205.649 2.794,205.550 2.833,204.752 2.833 C 203.646 2.833,203.333 2.947,203.333 3.351 C 203.333 3.619,203.207 3.667,202.500 3.667 C 201.778 3.667,201.667 3.711,201.667 4.000 C 201.667 4.268,201.556 4.333,201.097 4.333 C 200.312 4.333,200.000 4.480,200.000 4.851 C 200.000 5.114,199.875 5.167,199.250 5.167 C 198.561 5.167,198.500 5.201,198.500 5.583 C 198.500 5.904,198.413 6.001,198.125 6.002 C 197.456 6.006,197.033 6.191,196.948 6.515 C 196.893 6.725,196.717 6.833,196.432 6.833 C 196.119 6.833,196.000 6.920,196.000 7.149 C 196.000 7.342,195.846 7.502,195.603 7.563 C 195.385 7.618,195.167 7.814,195.119 7.998 C 195.060 8.222,194.892 8.333,194.613 8.333 C 193.976 8.333,193.667 8.503,193.667 8.851 C 193.667 9.077,193.548 9.167,193.250 9.167 C 192.917 9.167,192.833 9.250,192.833 9.583 C 192.833 9.917,192.750 10.000,192.417 10.000 C 192.083 10.000,192.000 10.083,192.000 10.417 C 192.000 10.750,191.917 10.833,191.583 10.833 C 191.278 10.833,191.167 10.922,191.167 11.167 C 191.167 11.389,191.056 11.500,190.833 11.500 C 190.589 11.500,190.500 11.611,190.500 11.917 C 190.500 12.250,190.417 12.333,190.083 12.333 C 189.750 12.333,189.667 12.417,189.667 12.750 C 189.667 13.083,189.583 13.167,189.250 13.167 C 188.917 13.167,188.833 13.250,188.833 13.583 C 188.833 13.881,188.743 14.000,188.518 14.000 C 188.177 14.000,188.000 14.308,188.000 14.904 C 188.000 15.143,187.849 15.349,187.583 15.470 C 187.339 15.581,187.167 15.799,187.167 15.996 C 187.167 16.222,187.057 16.333,186.833 16.333 C 186.577 16.333,186.500 16.444,186.500 16.814 C 186.500 17.149,186.402 17.320,186.178 17.379 C 185.965 17.434,185.817 17.669,185.742 18.066 C 185.658 18.515,185.527 18.695,185.231 18.770 C 184.889 18.856,184.833 18.970,184.833 19.590 C 184.833 20.210,184.781 20.318,184.458 20.363 C 184.138 20.409,184.076 20.533,184.033 21.208 C 183.991 21.856,183.924 22.000,183.666 22.000 C 183.403 22.000,183.331 22.170,183.235 23.013 C 183.154 23.735,183.032 24.082,182.810 24.220 C 182.584 24.361,182.500 24.612,182.500 25.146 C 182.500 25.713,182.406 25.966,182.083 26.265 C 181.710 26.610,181.667 26.782,181.667 27.900 C 181.667 29.002,181.617 29.203,181.250 29.599 L 180.833 30.049 180.833 37.005 L 180.833 43.962 181.250 44.235 C 181.640 44.490,181.667 44.599,181.667 45.903 C 181.667 47.172,181.704 47.334,182.080 47.691 C 182.418 48.011,182.495 48.245,182.497 48.958 C 182.500 49.721,182.543 49.833,182.833 49.833 C 183.101 49.833,183.167 49.944,183.167 50.396 C 183.167 51.382,183.367 52.040,183.692 52.125 C 183.925 52.186,184.000 52.364,184.000 52.856 C 184.000 53.385,184.076 53.542,184.408 53.693 C 184.729 53.840,184.827 54.025,184.867 54.565 C 184.908 55.130,184.982 55.259,185.292 55.303 C 185.550 55.340,185.667 55.470,185.667 55.722 C 185.667 55.941,185.817 56.153,186.042 56.252 C 186.320 56.374,186.430 56.582,186.469 57.060 C 186.507 57.517,186.611 57.727,186.829 57.784 C 186.998 57.828,187.173 58.007,187.219 58.182 C 187.267 58.367,187.448 58.500,187.651 58.500 C 187.929 58.500,188.000 58.603,188.000 59.011 C 188.000 59.645,188.266 60.167,188.589 60.167 C 188.723 60.167,188.833 60.315,188.833 60.497 C 188.833 60.710,188.981 60.864,189.250 60.932 C 189.511 60.997,189.667 61.154,189.667 61.351 C 189.667 61.577,189.786 61.667,190.083 61.667 C 190.417 61.667,190.500 61.750,190.500 62.083 C 190.500 62.384,190.590 62.500,190.822 62.500 C 191.029 62.500,191.163 62.634,191.197 62.875 C 191.230 63.112,191.384 63.269,191.615 63.302 C 191.842 63.334,191.999 63.491,192.031 63.719 C 192.064 63.949,192.221 64.103,192.458 64.137 C 192.698 64.171,192.833 64.305,192.833 64.508 C 192.833 64.706,192.986 64.865,193.234 64.928 C 193.455 64.983,193.673 65.172,193.719 65.347 C 193.784 65.596,193.952 65.667,194.484 65.667 C 195.101 65.667,195.167 65.707,195.167 66.083 C 195.167 66.413,195.251 66.500,195.572 66.500 C 195.865 66.500,195.992 66.604,196.030 66.874 C 196.066 67.128,196.227 67.275,196.531 67.332 C 196.778 67.379,197.172 67.585,197.407 67.792 C 197.643 67.998,197.985 68.167,198.168 68.167 C 198.389 68.167,198.500 68.278,198.500 68.500 C 198.500 68.783,198.611 68.833,199.238 68.833 C 199.877 68.833,199.984 68.884,200.030 69.208 C 200.076 69.528,200.199 69.591,200.875 69.634 C 201.590 69.680,201.667 69.725,201.667 70.092 C 201.667 70.471,201.727 70.500,202.508 70.500 C 203.191 70.500,203.422 70.578,203.735 70.917 C 204.037 71.243,204.285 71.333,204.874 71.333 C 205.459 71.333,205.679 71.413,205.864 71.692 C 206.068 71.998,206.305 72.063,207.468 72.130 C 208.219 72.174,208.833 72.275,208.833 72.355 C 208.833 72.435,212.397 72.500,216.833 72.500 C 221.840 72.500,224.833 72.440,224.833 72.340 C 224.833 72.252,225.490 72.158,226.292 72.131 C 227.613 72.088,227.765 72.049,227.912 71.715 C 228.051 71.398,228.223 71.340,229.162 71.298 C 230.146 71.255,230.255 71.214,230.303 70.875 C 230.349 70.553,230.457 70.500,231.071 70.500 C 231.601 70.500,231.900 70.393,232.234 70.083 C 232.482 69.854,232.872 69.667,233.103 69.667 C 233.654 69.667,234.167 69.383,234.167 69.077 C 234.167 68.917,234.339 68.833,234.667 68.833 C 235.051 68.833,235.167 68.758,235.167 68.510 C 235.167 68.248,235.302 68.176,235.875 68.135 C 236.451 68.093,236.593 68.017,236.634 67.728 C 236.673 67.455,236.840 67.348,237.359 67.265 C 237.836 67.189,238.059 67.061,238.120 66.829 C 238.175 66.618,238.348 66.500,238.600 66.500 C 238.881 66.500,239.024 66.381,239.098 66.083 C 239.173 65.784,239.315 65.667,239.601 65.667 C 239.889 65.667,240.000 65.574,240.000 65.333 C 240.000 65.126,240.111 65.000,240.294 65.000 C 240.455 65.000,240.662 64.836,240.752 64.637 C 240.843 64.437,241.179 64.186,241.500 64.080 C 241.821 63.974,242.106 63.770,242.134 63.626 C 242.162 63.482,242.368 63.319,242.593 63.263 C 242.830 63.203,243.000 63.039,243.000 62.870 C 243.000 62.710,243.168 62.505,243.374 62.415 C 243.580 62.324,243.776 62.104,243.809 61.926 C 243.843 61.748,244.049 61.461,244.268 61.289 C 244.493 61.112,244.667 60.799,244.667 60.571 C 244.667 60.251,244.753 60.167,245.083 60.167 C 245.417 60.167,245.500 60.083,245.500 59.750 C 245.500 59.417,245.583 59.333,245.917 59.333 C 246.250 59.333,246.333 59.250,246.333 58.917 C 246.333 58.616,246.423 58.500,246.656 58.500 C 246.912 58.500,247.003 58.342,247.092 57.750 C 247.180 57.166,247.274 57.000,247.519 57.000 C 247.739 57.000,247.833 56.881,247.833 56.601 C 247.833 56.315,247.951 56.173,248.250 56.098 C 248.617 56.006,248.667 55.904,248.667 55.247 C 248.667 54.561,248.701 54.500,249.083 54.500 C 249.465 54.500,249.500 54.438,249.500 53.762 C 249.500 53.123,249.551 53.016,249.875 52.970 C 250.195 52.924,250.257 52.801,250.301 52.125 C 250.337 51.563,250.423 51.333,250.597 51.333 C 250.922 51.333,251.167 50.650,251.167 49.739 C 251.167 49.111,251.217 49.000,251.500 49.000 C 251.803 49.000,251.833 48.889,251.833 47.790 C 251.833 46.694,251.869 46.563,252.208 46.415 C 252.564 46.259,252.586 46.144,252.630 44.209 C 252.675 42.246,252.693 42.157,253.088 41.898 L 253.500 41.628 253.500 37.004 L 253.500 32.379 253.089 31.968 C 252.707 31.586,252.675 31.423,252.631 29.653 C 252.586 27.862,252.561 27.740,252.208 27.585 C 251.873 27.438,251.833 27.303,251.833 26.294 C 251.833 25.278,251.800 25.167,251.500 25.167 C 251.224 25.167,251.167 25.056,251.167 24.521 C 251.167 23.484,250.985 22.851,250.656 22.747 C 250.437 22.677,250.337 22.453,250.301 21.950 C 250.259 21.375,250.185 21.241,249.884 21.198 C 249.575 21.154,249.510 21.023,249.467 20.365 C 249.425 19.706,249.359 19.575,249.051 19.531 C 248.751 19.489,248.676 19.354,248.634 18.781 C 248.592 18.203,248.519 18.074,248.208 18.030 C 247.950 17.993,247.833 17.863,247.833 17.612 C 247.833 17.411,247.693 17.159,247.521 17.052 C 247.349 16.944,247.156 16.580,247.093 16.243 C 247.017 15.837,246.869 15.601,246.656 15.545 C 246.478 15.499,246.333 15.328,246.333 15.165 C 246.333 14.989,246.165 14.827,245.917 14.765 C 245.661 14.701,245.500 14.542,245.500 14.353 C 245.500 14.184,245.325 13.866,245.112 13.648 C 244.898 13.429,244.673 13.112,244.611 12.943 C 244.549 12.773,244.349 12.596,244.166 12.548 C 243.954 12.493,243.833 12.321,243.833 12.075 C 243.833 11.802,243.724 11.674,243.458 11.637 C 243.217 11.602,243.064 11.449,243.030 11.208 C 242.998 10.981,242.861 10.833,242.682 10.833 C 242.520 10.833,242.301 10.646,242.197 10.417 C 242.093 10.188,241.896 10.000,241.761 10.000 C 241.626 10.000,241.328 9.813,241.098 9.583 C 240.869 9.354,240.534 9.167,240.353 9.167 C 240.138 9.167,240.005 9.036,239.970 8.792 C 239.936 8.551,239.783 8.398,239.542 8.363 C 239.335 8.334,239.167 8.201,239.167 8.068 C 239.167 7.934,238.986 7.756,238.764 7.672 C 238.543 7.588,238.313 7.365,238.253 7.176 C 238.165 6.898,238.005 6.833,237.405 6.833 C 236.729 6.833,236.667 6.798,236.667 6.417 C 236.667 6.102,236.579 6.000,236.311 6.000 C 236.115 6.000,235.781 5.812,235.569 5.583 C 235.356 5.354,234.997 5.167,234.769 5.167 C 234.508 5.167,234.318 5.049,234.254 4.847 C 234.185 4.628,233.931 4.489,233.452 4.409 C 233.063 4.343,232.654 4.151,232.533 3.978 C 232.361 3.733,232.103 3.667,231.324 3.667 C 230.378 3.667,230.333 3.648,230.333 3.250 C 230.333 2.862,230.277 2.833,229.509 2.833 C 228.860 2.833,228.588 2.744,228.234 2.417 C 227.847 2.058,227.628 2.000,226.663 2.000 C 225.684 2.000,225.509 1.952,225.292 1.625 C 225.050 1.260,224.955 1.249,221.689 1.199 C 218.567 1.151,218.323 1.125,218.161 0.824 C 217.904 0.342,216.175 0.347,216.049 0.830 M352.700 11.643 C 352.285 11.906,352.507 13.906,352.958 13.970 C 353.281 14.016,353.333 14.123,353.333 14.744 C 353.333 15.295,353.431 15.557,353.747 15.858 C 354.063 16.157,354.162 16.422,354.164 16.974 C 354.166 17.544,354.234 17.716,354.483 17.781 C 354.711 17.840,354.832 18.075,354.913 18.617 C 354.995 19.164,355.114 19.394,355.346 19.455 C 355.593 19.520,355.667 19.688,355.667 20.190 C 355.667 20.722,355.742 20.875,356.083 21.030 C 356.435 21.190,356.500 21.334,356.500 21.943 C 356.500 22.604,356.536 22.667,356.917 22.667 C 357.306 22.667,357.333 22.722,357.333 23.500 C 357.333 24.278,357.361 24.333,357.750 24.333 C 358.129 24.333,358.167 24.397,358.167 25.043 C 358.167 25.573,358.251 25.806,358.500 25.961 C 358.728 26.104,358.833 26.350,358.833 26.741 C 358.833 27.507,359.101 28.167,359.413 28.167 C 359.591 28.167,359.667 28.337,359.667 28.736 C 359.667 29.522,359.814 29.833,360.184 29.833 C 360.447 29.833,360.500 29.959,360.500 30.580 C 360.500 31.238,360.550 31.339,360.917 31.432 C 361.282 31.523,361.333 31.626,361.333 32.268 C 361.333 32.885,361.385 33.000,361.661 33.000 C 361.928 33.000,362.009 33.153,362.099 33.833 C 362.187 34.497,362.273 34.667,362.521 34.667 C 362.777 34.667,362.833 34.794,362.833 35.377 C 362.833 35.954,362.904 36.119,363.208 36.252 C 363.503 36.381,363.606 36.601,363.688 37.275 C 363.807 38.251,363.922 38.500,364.251 38.500 C 364.408 38.500,364.498 38.752,364.533 39.292 C 364.576 39.967,364.638 40.091,364.958 40.137 C 365.284 40.183,365.333 40.289,365.333 40.944 C 365.333 41.544,365.398 41.715,365.650 41.781 C 365.876 41.840,365.998 42.072,366.076 42.590 C 366.151 43.096,366.280 43.347,366.500 43.417 C 366.731 43.490,366.829 43.704,366.866 44.217 C 366.908 44.792,366.982 44.926,367.283 44.969 C 367.592 45.013,367.657 45.143,367.700 45.802 C 367.742 46.467,367.806 46.591,368.125 46.637 C 368.436 46.681,368.500 46.795,368.502 47.303 C 368.506 48.202,368.662 48.643,369.018 48.756 C 369.266 48.834,369.333 49.017,369.333 49.610 C 369.333 50.214,369.397 50.381,369.653 50.448 C 369.892 50.511,370.002 50.740,370.086 51.349 C 370.175 52.003,370.262 52.167,370.516 52.167 C 370.780 52.167,370.833 52.290,370.833 52.899 C 370.833 53.540,370.885 53.643,371.250 53.735 C 371.617 53.827,371.667 53.929,371.667 54.587 C 371.667 55.268,371.703 55.333,372.074 55.333 C 372.442 55.333,372.487 55.410,372.533 56.125 C 372.576 56.801,372.638 56.924,372.958 56.970 C 373.281 57.016,373.333 57.124,373.333 57.739 C 373.333 58.181,373.451 58.607,373.641 58.853 C 373.810 59.071,373.995 59.544,374.052 59.902 C 374.206 60.882,374.294 60.917,376.633 60.917 L 378.750 60.917 378.803 60.458 C 378.833 60.192,378.957 60.000,379.099 60.000 C 379.401 60.000,379.667 59.330,379.667 58.568 C 379.667 58.107,379.750 57.960,380.083 57.833 C 380.443 57.697,380.500 57.572,380.500 56.921 C 380.500 56.278,380.549 56.167,380.833 56.167 C 381.122 56.167,381.167 56.056,381.167 55.333 C 381.167 54.556,381.194 54.500,381.583 54.500 C 381.965 54.500,382.000 54.438,382.000 53.762 C 382.000 53.123,382.051 53.016,382.375 52.970 C 382.695 52.924,382.757 52.801,382.801 52.125 C 382.842 51.488,382.911 51.333,383.156 51.333 C 383.479 51.333,383.661 50.901,383.664 50.125 C 383.666 49.844,383.757 49.667,383.900 49.667 C 384.171 49.667,384.500 48.831,384.500 48.143 C 384.500 47.850,384.627 47.590,384.833 47.461 C 385.082 47.306,385.167 47.073,385.167 46.543 C 385.167 45.897,385.204 45.833,385.583 45.833 C 385.972 45.833,386.000 45.778,386.000 45.000 C 386.000 44.222,386.028 44.167,386.417 44.167 C 386.799 44.167,386.833 44.106,386.833 43.417 C 386.833 43.004,386.903 42.667,386.988 42.667 C 387.320 42.667,387.667 42.117,387.667 41.591 C 387.667 41.190,387.753 41.016,387.982 40.956 C 388.204 40.898,388.333 40.658,388.418 40.145 C 388.484 39.745,388.679 39.282,388.852 39.119 C 389.059 38.922,389.167 38.590,389.167 38.148 C 389.167 37.499,389.451 37.000,389.821 37.000 C 389.922 37.000,390.000 36.676,390.000 36.262 C 390.000 35.623,390.051 35.516,390.375 35.470 C 390.695 35.424,390.757 35.301,390.801 34.625 C 390.842 33.986,390.911 33.833,391.158 33.833 C 391.511 33.833,391.667 33.518,391.667 32.804 C 391.667 32.442,391.760 32.278,392.000 32.215 C 392.268 32.145,392.333 31.988,392.333 31.415 C 392.333 30.794,392.387 30.689,392.750 30.598 C 393.109 30.508,393.167 30.400,393.167 29.815 C 393.167 29.318,393.264 29.058,393.531 28.841 C 393.782 28.638,393.926 28.291,393.990 27.731 C 394.063 27.097,394.166 26.880,394.458 26.752 C 394.758 26.621,394.833 26.453,394.833 25.917 C 394.833 25.381,394.909 25.213,395.208 25.081 C 395.498 24.954,395.595 24.755,395.635 24.208 C 395.676 23.636,395.748 23.500,396.010 23.500 C 396.287 23.500,396.333 23.381,396.333 22.667 C 396.333 21.889,396.361 21.833,396.750 21.833 C 397.130 21.833,397.167 21.770,397.167 21.110 C 397.167 20.500,397.232 20.357,397.583 20.197 C 397.917 20.045,398.000 19.886,398.000 19.398 C 398.000 18.962,398.119 18.678,398.417 18.402 C 398.754 18.090,398.833 17.857,398.833 17.186 C 398.833 16.453,398.877 16.350,399.208 16.303 C 399.528 16.258,399.591 16.134,399.634 15.458 C 399.662 15.023,399.756 14.667,399.842 14.667 C 399.930 14.667,400.000 13.966,400.000 13.080 L 400.000 11.494 395.875 11.539 L 391.750 11.583 391.697 11.958 C 391.658 12.230,391.532 12.333,391.238 12.333 C 390.864 12.333,390.833 12.396,390.833 13.155 C 390.833 13.880,390.789 13.983,390.458 14.030 C 390.138 14.076,390.076 14.199,390.033 14.875 C 389.992 15.511,389.922 15.667,389.678 15.667 C 389.362 15.667,389.167 16.246,389.167 17.186 C 389.167 17.483,389.041 17.742,388.833 17.872 C 388.586 18.026,388.500 18.261,388.500 18.778 C 388.500 19.376,388.446 19.485,388.125 19.530 C 387.806 19.575,387.742 19.700,387.700 20.365 C 387.657 21.023,387.592 21.154,387.283 21.198 C 386.973 21.242,386.909 21.372,386.866 22.042 C 386.830 22.604,386.744 22.833,386.570 22.833 C 386.246 22.833,386.000 23.516,386.000 24.416 C 386.000 25.044,385.948 25.151,385.625 25.197 C 385.315 25.241,385.241 25.370,385.200 25.941 C 385.162 26.461,385.069 26.653,384.825 26.717 C 384.563 26.786,384.500 26.949,384.500 27.556 C 384.500 28.211,384.451 28.317,384.125 28.363 C 383.813 28.408,383.741 28.536,383.699 29.127 C 383.664 29.611,383.517 29.968,383.240 30.245 C 382.916 30.569,382.833 30.823,382.833 31.492 C 382.833 32.278,382.806 32.333,382.417 32.333 C 382.036 32.333,382.000 32.396,382.000 33.064 C 382.000 33.637,381.933 33.812,381.689 33.876 C 381.467 33.934,381.345 34.174,381.265 34.711 C 381.183 35.254,381.063 35.488,380.835 35.548 C 380.577 35.615,380.508 35.812,380.467 36.607 C 380.424 37.434,380.359 37.609,380.042 37.748 C 379.728 37.885,379.667 38.043,379.667 38.706 C 379.667 39.442,379.636 39.500,379.250 39.500 C 378.867 39.500,378.833 39.561,378.833 40.250 C 378.833 40.798,378.767 41.000,378.589 41.000 C 378.267 41.000,378.000 41.522,378.000 42.150 C 378.000 42.484,377.887 42.715,377.667 42.833 C 377.411 42.970,377.333 43.182,377.333 43.742 C 377.333 44.144,377.288 44.591,377.232 44.736 C 377.087 45.116,376.500 45.074,376.500 44.684 C 376.500 44.510,376.314 44.192,376.086 43.976 C 375.810 43.714,375.671 43.400,375.670 43.031 C 375.666 42.358,375.407 41.833,375.077 41.833 C 374.900 41.833,374.833 41.632,374.833 41.095 C 374.833 40.456,374.783 40.349,374.458 40.303 C 374.138 40.258,374.076 40.134,374.033 39.458 C 373.990 38.803,373.926 38.667,373.658 38.667 C 373.386 38.667,373.333 38.549,373.333 37.941 C 373.333 37.398,373.228 37.102,372.917 36.766 C 372.688 36.518,372.500 36.137,372.500 35.919 C 372.500 35.308,372.203 34.667,371.921 34.667 C 371.731 34.667,371.667 34.479,371.667 33.928 C 371.667 33.289,371.616 33.183,371.292 33.137 C 370.972 33.091,370.909 32.967,370.866 32.292 C 370.820 31.577,370.775 31.500,370.408 31.500 C 370.025 31.500,370.000 31.444,370.000 30.590 C 370.000 29.914,369.919 29.603,369.686 29.381 C 369.513 29.218,369.317 28.755,369.251 28.355 C 369.166 27.842,369.037 27.602,368.815 27.544 C 368.574 27.480,368.500 27.309,368.500 26.810 C 368.500 26.278,368.424 26.125,368.083 25.970 C 367.732 25.810,367.667 25.666,367.667 25.057 C 367.667 24.396,367.630 24.333,367.250 24.333 C 366.860 24.333,366.833 24.279,366.833 23.489 C 366.833 22.552,366.615 22.000,366.244 22.000 C 366.065 22.000,366.000 21.796,366.000 21.234 C 366.000 20.616,365.938 20.452,365.675 20.384 C 365.431 20.320,365.338 20.128,365.300 19.608 C 365.262 19.078,365.162 18.878,364.875 18.752 C 364.570 18.619,364.500 18.454,364.500 17.877 C 364.500 17.230,364.463 17.167,364.083 17.167 C 363.694 17.167,363.667 17.112,363.667 16.322 C 363.667 15.393,363.449 14.833,363.087 14.833 C 362.924 14.833,362.836 14.588,362.801 14.042 C 362.757 13.366,362.695 13.242,362.375 13.197 C 362.052 13.151,362.000 13.043,362.000 12.425 C 362.000 11.820,361.940 11.690,361.625 11.605 C 361.053 11.452,352.947 11.486,352.700 11.643 M81.833 16.069 C 81.833 16.215,81.952 16.333,82.097 16.333 C 82.242 16.333,82.331 16.244,82.295 16.135 C 82.192 15.826,81.833 15.775,81.833 16.069 M209.829 21.662 C 210.010 21.843,210.350 22.040,210.583 22.098 C 210.817 22.157,211.084 22.346,211.177 22.519 C 211.272 22.697,211.524 22.833,211.757 22.833 C 211.989 22.833,212.327 23.016,212.531 23.250 C 212.730 23.479,213.024 23.667,213.184 23.667 C 213.344 23.667,213.697 23.854,213.970 24.083 C 214.242 24.313,214.585 24.500,214.732 24.500 C 214.880 24.500,215.148 24.648,215.329 24.829 C 215.510 25.010,215.849 25.206,216.083 25.265 C 216.317 25.323,216.600 25.503,216.712 25.663 C 216.825 25.824,217.161 26.009,217.460 26.074 C 217.758 26.140,218.080 26.338,218.174 26.514 C 218.268 26.689,218.487 26.833,218.660 26.833 C 218.833 26.833,219.197 27.021,219.470 27.250 C 219.742 27.479,220.056 27.667,220.167 27.667 C 220.278 27.667,220.591 27.854,220.864 28.083 C 221.136 28.313,221.499 28.500,221.670 28.500 C 221.841 28.500,222.079 28.638,222.199 28.806 C 222.319 28.975,222.625 29.164,222.879 29.227 C 223.134 29.290,223.490 29.490,223.671 29.671 C 223.852 29.852,224.107 30.000,224.237 30.000 C 224.368 30.000,224.686 30.172,224.946 30.381 C 225.205 30.591,225.623 30.852,225.875 30.961 C 226.127 31.070,226.333 31.230,226.333 31.317 C 226.333 31.403,226.562 31.524,226.841 31.585 C 227.120 31.646,227.476 31.829,227.632 31.991 C 227.789 32.154,228.118 32.335,228.363 32.393 C 228.609 32.452,228.939 32.632,229.096 32.792 C 229.410 33.113,230.084 33.510,231.038 33.936 C 231.380 34.089,231.704 34.354,231.758 34.524 C 231.812 34.694,231.920 34.833,231.999 34.833 C 232.363 34.833,232.667 35.404,232.667 36.085 C 232.667 36.486,232.748 36.864,232.848 36.926 C 232.978 37.006,232.978 37.088,232.848 37.219 C 232.748 37.318,232.667 37.683,232.667 38.029 C 232.667 38.739,231.446 40.167,230.838 40.167 C 230.663 40.167,230.421 40.306,230.301 40.476 C 230.181 40.646,229.907 40.841,229.692 40.909 C 229.477 40.977,229.158 41.176,228.984 41.350 C 228.809 41.524,228.516 41.667,228.332 41.667 C 228.148 41.667,227.835 41.854,227.636 42.083 C 227.436 42.312,227.113 42.500,226.917 42.500 C 226.721 42.500,226.397 42.688,226.198 42.917 C 225.999 43.146,225.697 43.333,225.527 43.333 C 225.357 43.333,225.089 43.477,224.930 43.652 C 224.772 43.827,224.445 44.020,224.204 44.080 C 223.962 44.141,223.664 44.335,223.540 44.512 C 223.416 44.689,223.174 44.833,223.003 44.833 C 222.832 44.833,222.480 45.011,222.221 45.227 C 221.962 45.444,221.563 45.678,221.333 45.748 C 221.104 45.818,220.782 46.015,220.619 46.187 C 220.455 46.359,220.225 46.500,220.109 46.500 C 219.993 46.500,219.644 46.687,219.333 46.917 C 219.023 47.146,218.651 47.333,218.508 47.333 C 218.364 47.333,218.155 47.480,218.044 47.658 C 217.932 47.837,217.577 48.033,217.254 48.094 C 216.931 48.154,216.667 48.298,216.667 48.413 C 216.667 48.527,216.336 48.748,215.931 48.902 C 215.527 49.057,215.154 49.292,215.103 49.425 C 215.052 49.558,214.839 49.668,214.630 49.670 C 214.421 49.671,214.073 49.859,213.858 50.086 C 213.642 50.314,213.288 50.500,213.072 50.500 C 212.855 50.500,212.602 50.643,212.507 50.820 C 212.413 50.996,212.107 51.190,211.827 51.251 C 211.548 51.313,211.138 51.544,210.917 51.765 C 210.696 51.986,210.418 52.168,210.299 52.170 C 210.180 52.172,209.896 52.321,209.667 52.500 C 209.069 52.967,206.557 52.983,206.063 52.523 C 205.879 52.352,205.565 52.124,205.365 52.017 C 205.164 51.909,205.000 51.739,205.000 51.638 C 205.000 51.537,204.813 51.281,204.583 51.069 L 204.167 50.683 204.167 37.081 L 204.167 23.480 204.785 22.740 C 205.126 22.333,205.482 22.000,205.579 22.000 C 205.675 22.000,205.847 21.850,205.961 21.667 C 206.272 21.169,209.332 21.166,209.829 21.662 M38.000 52.417 C 38.000 52.554,38.067 52.667,38.149 52.667 C 38.231 52.667,38.341 52.554,38.394 52.417 C 38.452 52.264,38.394 52.167,38.245 52.167 C 38.110 52.167,38.000 52.279,38.000 52.417 " stroke="none" fill="#d10e17" fill-rule="evenodd"></path><path id="path1" d="M282.167 11.167 C 282.167 11.477,282.056 11.500,280.583 11.500 C 279.006 11.500,279.000 11.501,279.000 11.917 C 279.000 12.299,278.939 12.333,278.250 12.333 C 277.561 12.333,277.500 12.367,277.500 12.750 C 277.500 13.139,277.444 13.167,276.667 13.167 C 275.889 13.167,275.833 13.194,275.833 13.583 C 275.833 13.917,275.750 14.000,275.417 14.000 C 275.111 14.000,275.000 14.089,275.000 14.333 C 275.000 14.553,274.889 14.667,274.673 14.667 C 274.375 14.667,274.342 14.529,274.298 13.125 L 274.250 11.583 267.458 11.540 L 260.667 11.496 260.667 36.248 L 260.667 61.000 267.833 61.000 L 275.000 61.000 275.000 46.250 L 275.000 31.500 275.417 31.500 C 275.832 31.500,275.833 31.494,275.833 29.917 C 275.833 28.339,275.835 28.333,276.250 28.333 C 276.583 28.333,276.667 28.250,276.667 27.917 C 276.667 27.583,276.750 27.500,277.083 27.500 C 277.417 27.500,277.500 27.417,277.500 27.083 C 277.500 26.778,277.589 26.667,277.833 26.667 C 278.078 26.667,278.167 26.556,278.167 26.250 C 278.167 25.917,278.250 25.833,278.583 25.833 C 278.889 25.833,279.000 25.744,279.000 25.500 C 279.000 25.211,279.111 25.167,279.833 25.167 C 280.611 25.167,280.667 25.139,280.667 24.750 C 280.667 24.345,280.700 24.333,281.833 24.333 C 282.967 24.333,283.000 24.321,283.000 23.917 C 283.000 23.583,283.083 23.500,283.417 23.500 C 283.750 23.500,283.833 23.583,283.833 23.917 C 283.833 24.332,283.840 24.333,285.405 24.333 C 286.908 24.333,286.979 24.350,287.030 24.708 C 287.064 24.949,287.217 25.102,287.458 25.137 C 287.699 25.171,287.833 25.305,287.833 25.512 C 287.833 25.744,287.949 25.833,288.250 25.833 C 288.583 25.833,288.667 25.917,288.667 26.250 C 288.667 26.583,288.750 26.667,289.083 26.667 C 289.417 26.667,289.500 26.750,289.500 27.083 C 289.500 27.384,289.590 27.500,289.822 27.500 C 290.029 27.500,290.163 27.634,290.197 27.875 C 290.231 28.116,290.384 28.269,290.625 28.303 C 290.973 28.353,291.000 28.441,291.000 29.512 C 291.000 30.633,291.012 30.667,291.417 30.667 L 291.833 30.667 291.833 45.833 L 291.833 61.000 299.000 61.000 L 306.167 61.000 306.167 43.417 L 306.167 25.833 305.750 25.833 C 305.335 25.833,305.333 25.828,305.333 24.250 C 305.333 22.778,305.310 22.667,305.000 22.667 C 304.698 22.667,304.667 22.556,304.667 21.500 C 304.667 20.374,304.653 20.333,304.259 20.333 C 303.891 20.333,303.847 20.256,303.801 19.542 C 303.757 18.866,303.695 18.742,303.375 18.697 C 303.134 18.663,303.000 18.529,303.000 18.322 C 303.000 18.090,302.884 18.000,302.583 18.000 C 302.194 18.000,302.167 17.944,302.167 17.167 C 302.167 16.389,302.139 16.333,301.750 16.333 C 301.417 16.333,301.333 16.250,301.333 15.917 C 301.333 15.616,301.244 15.500,301.012 15.500 C 300.805 15.500,300.671 15.366,300.637 15.125 C 300.602 14.884,300.449 14.731,300.208 14.697 C 299.967 14.663,299.833 14.529,299.833 14.322 C 299.833 14.047,299.712 14.000,299.000 14.000 C 298.222 14.000,298.167 13.972,298.167 13.583 C 298.167 13.250,298.083 13.167,297.750 13.167 C 297.417 13.167,297.333 13.083,297.333 12.750 C 297.333 12.367,297.272 12.333,296.583 12.333 C 295.894 12.333,295.833 12.299,295.833 11.917 C 295.833 11.501,295.828 11.500,294.250 11.500 C 292.778 11.500,292.667 11.477,292.667 11.167 C 292.667 10.840,292.556 10.833,287.417 10.833 C 282.278 10.833,282.167 10.840,282.167 11.167 M15.613 11.609 C 15.551 11.671,15.500 11.860,15.500 12.028 C 15.500 12.303,15.341 12.333,13.917 12.333 C 12.339 12.333,12.333 12.335,12.333 12.750 C 12.333 13.155,12.300 13.167,11.167 13.167 C 10.033 13.167,10.000 13.179,10.000 13.583 C 10.000 13.972,9.944 14.000,9.167 14.000 C 8.444 14.000,8.333 14.044,8.333 14.333 C 8.333 14.556,8.222 14.667,8.000 14.667 C 7.756 14.667,7.667 14.778,7.667 15.083 C 7.667 15.417,7.583 15.500,7.250 15.500 C 6.917 15.500,6.833 15.583,6.833 15.917 C 6.833 16.306,6.778 16.333,6.000 16.333 L 5.167 16.333 5.167 17.167 C 5.167 17.944,5.139 18.000,4.750 18.000 C 4.444 18.000,4.333 18.089,4.333 18.333 C 4.333 18.556,4.222 18.667,4.000 18.667 C 3.711 18.667,3.667 18.778,3.667 19.500 C 3.667 20.278,3.639 20.333,3.250 20.333 C 2.835 20.333,2.833 20.339,2.833 21.917 C 2.833 23.494,2.832 23.500,2.417 23.500 L 2.000 23.500 2.000 26.667 L 2.000 29.833 2.417 29.833 C 2.824 29.833,2.833 29.861,2.833 31.083 C 2.833 32.306,2.843 32.333,3.250 32.333 C 3.633 32.333,3.667 32.394,3.667 33.083 C 3.667 33.722,3.716 33.833,4.000 33.833 C 4.244 33.833,4.333 33.944,4.333 34.250 C 4.333 34.583,4.417 34.667,4.750 34.667 C 5.133 34.667,5.167 34.728,5.167 35.417 C 5.167 36.106,5.201 36.167,5.583 36.167 C 5.917 36.167,6.000 36.250,6.000 36.583 C 6.000 36.972,6.056 37.000,6.833 37.000 C 7.611 37.000,7.667 37.028,7.667 37.417 C 7.667 37.722,7.756 37.833,8.000 37.833 C 8.244 37.833,8.333 37.944,8.333 38.250 C 8.333 38.639,8.389 38.667,9.167 38.667 C 9.944 38.667,10.000 38.694,10.000 39.083 C 10.000 39.464,10.062 39.500,10.731 39.500 C 11.321 39.500,11.478 39.564,11.548 39.833 C 11.620 40.106,11.776 40.167,12.401 40.167 C 13.107 40.167,13.167 40.199,13.167 40.583 C 13.167 40.972,13.222 41.000,14.000 41.000 C 14.778 41.000,14.833 41.028,14.833 41.417 C 14.833 41.799,14.894 41.833,15.583 41.833 C 16.272 41.833,16.333 41.867,16.333 42.250 C 16.333 42.657,16.361 42.667,17.583 42.667 C 18.806 42.667,18.833 42.676,18.833 43.083 C 18.833 43.466,18.894 43.500,19.583 43.500 C 20.222 43.500,20.333 43.549,20.333 43.833 C 20.333 44.122,20.444 44.167,21.167 44.167 C 21.944 44.167,22.000 44.194,22.000 44.583 C 22.000 44.966,22.061 45.000,22.750 45.000 C 23.439 45.000,23.500 45.034,23.500 45.417 C 23.500 45.750,23.583 45.833,23.917 45.833 C 24.250 45.833,24.333 45.917,24.333 46.250 C 24.333 46.583,24.417 46.667,24.750 46.667 C 25.133 46.667,25.167 46.728,25.167 47.417 C 25.167 48.106,25.133 48.167,24.750 48.167 C 24.417 48.167,24.333 48.250,24.333 48.583 C 24.333 48.917,24.250 49.000,23.917 49.000 C 23.583 49.000,23.500 49.083,23.500 49.417 C 23.500 49.799,23.439 49.833,22.750 49.833 C 22.061 49.833,22.000 49.867,22.000 50.250 L 22.000 50.667 20.000 50.667 L 18.000 50.667 18.000 50.250 C 18.000 49.835,17.994 49.833,16.417 49.833 C 14.839 49.833,14.833 49.832,14.833 49.417 C 14.833 49.028,14.778 49.000,14.000 49.000 C 13.222 49.000,13.167 48.972,13.167 48.583 C 13.167 48.194,13.111 48.167,12.333 48.167 C 11.556 48.167,11.500 48.139,11.500 47.750 C 11.500 47.444,11.411 47.333,11.167 47.333 C 10.944 47.333,10.833 47.222,10.833 47.000 C 10.833 46.756,10.722 46.667,10.417 46.667 C 10.083 46.667,10.000 46.583,10.000 46.250 C 10.000 45.861,9.944 45.833,9.167 45.833 C 8.389 45.833,8.333 45.806,8.333 45.417 C 8.333 45.116,8.244 45.000,8.012 45.000 C 7.805 45.000,7.671 44.866,7.637 44.625 C 7.548 44.002,5.167 43.955,5.167 44.576 C 5.167 44.917,5.085 45.000,4.750 45.000 C 4.361 45.000,4.333 45.056,4.333 45.833 C 4.333 46.556,4.289 46.667,4.000 46.667 C 3.778 46.667,3.667 46.778,3.667 47.000 C 3.667 47.244,3.556 47.333,3.250 47.333 C 2.917 47.333,2.833 47.417,2.833 47.750 C 2.833 48.083,2.750 48.167,2.417 48.167 C 2.083 48.167,2.000 48.250,2.000 48.583 C 2.000 48.917,1.917 49.000,1.583 49.000 C 1.250 49.000,1.167 49.083,1.167 49.417 C 1.167 49.750,1.083 49.833,0.750 49.833 C 0.367 49.833,0.333 49.894,0.333 50.583 C 0.333 50.996,0.258 51.333,0.167 51.333 C 0.067 51.333,0.000 51.972,0.000 52.917 C 0.000 53.861,0.067 54.500,0.167 54.500 C 0.258 54.500,0.333 54.688,0.333 54.917 C 0.333 55.250,0.417 55.333,0.750 55.333 C 1.083 55.333,1.167 55.417,1.167 55.750 C 1.167 56.083,1.250 56.167,1.583 56.167 C 1.917 56.167,2.000 56.250,2.000 56.583 C 2.000 56.917,2.083 57.000,2.417 57.000 C 2.750 57.000,2.833 57.083,2.833 57.417 C 2.833 57.806,2.888 57.833,3.678 57.833 C 4.447 57.833,4.513 57.863,4.417 58.167 C 4.330 58.441,4.387 58.500,4.739 58.500 C 5.084 58.500,5.167 58.580,5.167 58.917 C 5.167 59.306,5.222 59.333,6.000 59.333 C 6.778 59.333,6.833 59.361,6.833 59.750 C 6.833 60.132,6.895 60.167,7.572 60.167 C 8.211 60.167,8.317 60.217,8.363 60.542 C 8.412 60.886,8.516 60.921,9.625 60.966 C 10.697 61.009,10.833 61.052,10.833 61.341 C 10.833 61.641,10.956 61.667,12.417 61.667 C 13.994 61.667,14.000 61.668,14.000 62.083 L 14.000 62.500 19.167 62.500 L 24.333 62.500 24.333 62.083 L 24.333 61.667 26.333 61.667 C 28.222 61.667,28.333 61.648,28.333 61.333 C 28.333 61.032,28.444 61.000,29.500 61.000 C 30.633 61.000,30.667 60.988,30.667 60.583 C 30.667 60.194,30.722 60.167,31.500 60.167 C 32.278 60.167,32.333 60.139,32.333 59.750 C 32.333 59.417,32.417 59.333,32.750 59.333 C 33.083 59.333,33.167 59.250,33.167 58.917 C 33.167 58.534,33.228 58.500,33.917 58.500 C 34.556 58.500,34.667 58.451,34.667 58.167 C 34.667 57.922,34.778 57.833,35.083 57.833 C 35.417 57.833,35.500 57.750,35.500 57.417 C 35.500 57.083,35.583 57.000,35.917 57.000 C 36.306 57.000,36.333 56.944,36.333 56.167 C 36.333 55.389,36.361 55.333,36.750 55.333 C 37.083 55.333,37.167 55.250,37.167 54.917 C 37.167 54.579,37.249 54.500,37.602 54.500 C 38.036 54.500,38.037 54.497,37.972 53.333 C 37.908 52.210,37.920 52.167,38.286 52.167 C 38.661 52.167,38.667 52.138,38.667 50.167 L 38.667 48.167 39.083 48.167 C 39.488 48.167,39.500 48.133,39.500 47.000 C 39.500 45.867,39.488 45.833,39.083 45.833 L 38.667 45.833 38.667 43.417 C 38.667 41.111,38.651 41.000,38.333 41.000 C 38.049 41.000,38.000 40.889,38.000 40.250 C 38.000 39.561,37.966 39.500,37.583 39.500 C 37.250 39.500,37.167 39.417,37.167 39.083 C 37.167 38.750,37.083 38.667,36.750 38.667 C 36.417 38.667,36.333 38.583,36.333 38.250 C 36.333 37.917,36.250 37.833,35.917 37.833 C 35.583 37.833,35.500 37.750,35.500 37.417 C 35.500 37.083,35.417 37.000,35.083 37.000 C 34.778 37.000,34.667 36.911,34.667 36.667 C 34.667 36.444,34.556 36.333,34.333 36.333 C 34.089 36.333,34.000 36.222,34.000 35.917 C 34.000 35.528,33.944 35.500,33.167 35.500 C 32.389 35.500,32.333 35.472,32.333 35.083 C 32.333 34.750,32.250 34.667,31.917 34.667 C 31.583 34.667,31.500 34.583,31.500 34.250 C 31.500 33.868,31.438 33.833,30.762 33.833 C 30.123 33.833,30.016 33.783,29.970 33.458 C 29.924 33.138,29.801 33.076,29.125 33.033 C 28.469 32.990,28.333 32.926,28.333 32.658 C 28.333 32.380,28.214 32.333,27.500 32.333 C 26.722 32.333,26.667 32.306,26.667 31.917 C 26.667 31.512,26.633 31.500,25.500 31.500 C 24.367 31.500,24.333 31.488,24.333 31.083 C 24.333 30.702,24.271 30.667,23.595 30.667 C 22.956 30.667,22.849 30.616,22.803 30.292 C 22.754 29.948,22.650 29.913,21.542 29.868 C 20.495 29.825,20.333 29.778,20.333 29.511 C 20.333 29.158,20.019 29.000,19.320 29.000 C 18.944 29.000,18.833 28.924,18.833 28.667 C 18.833 28.378,18.722 28.333,18.000 28.333 C 17.222 28.333,17.167 28.306,17.167 27.917 C 17.167 27.583,17.083 27.500,16.750 27.500 C 16.345 27.500,16.333 27.467,16.333 26.333 C 16.333 25.200,16.345 25.167,16.750 25.167 C 17.081 25.167,17.167 25.083,17.167 24.759 C 17.167 24.391,17.244 24.347,17.958 24.301 C 18.634 24.257,18.758 24.195,18.803 23.875 C 18.855 23.510,18.910 23.500,20.845 23.500 L 22.833 23.500 22.833 23.917 C 22.833 24.321,22.867 24.333,24.000 24.333 C 25.133 24.333,25.167 24.345,25.167 24.750 C 25.167 25.132,25.229 25.167,25.905 25.167 C 26.498 25.167,26.665 25.233,26.750 25.500 C 26.835 25.767,27.002 25.833,27.595 25.833 C 28.271 25.833,28.333 25.868,28.333 26.250 C 28.333 26.583,28.417 26.667,28.750 26.667 C 29.083 26.667,29.167 26.750,29.167 27.083 C 29.167 27.417,29.250 27.500,29.583 27.500 C 29.917 27.500,30.000 27.583,30.000 27.917 C 30.000 28.321,30.033 28.333,31.167 28.333 C 32.300 28.333,32.333 28.321,32.333 27.917 C 32.333 27.583,32.417 27.500,32.750 27.500 C 33.139 27.500,33.167 27.444,33.167 26.667 C 33.167 25.889,33.194 25.833,33.583 25.833 C 33.889 25.833,34.000 25.744,34.000 25.500 C 34.000 25.278,34.111 25.167,34.333 25.167 C 34.578 25.167,34.667 25.056,34.667 24.750 C 34.667 24.417,34.750 24.333,35.083 24.333 C 35.417 24.333,35.500 24.250,35.500 23.917 C 35.500 23.583,35.583 23.500,35.917 23.500 C 36.306 23.500,36.333 23.444,36.333 22.667 C 36.333 21.932,36.375 21.833,36.682 21.833 C 36.888 21.833,37.066 21.700,37.116 21.509 C 37.163 21.331,37.362 21.162,37.559 21.134 C 37.783 21.102,37.937 20.943,37.970 20.708 C 38.004 20.467,38.138 20.333,38.345 20.333 C 38.620 20.333,38.667 20.212,38.667 19.500 C 38.667 18.778,38.622 18.667,38.333 18.667 C 38.111 18.667,38.000 18.556,38.000 18.333 C 38.000 18.089,37.889 18.000,37.583 18.000 C 37.250 18.000,37.167 17.917,37.167 17.583 C 37.167 17.250,37.083 17.167,36.750 17.167 C 36.417 17.167,36.333 17.083,36.333 16.750 C 36.333 16.417,36.250 16.333,35.917 16.333 C 35.583 16.333,35.500 16.250,35.500 15.917 C 35.500 15.535,35.438 15.500,34.762 15.500 C 34.123 15.500,34.016 15.449,33.970 15.125 C 33.936 14.884,33.783 14.731,33.542 14.697 C 33.301 14.663,33.167 14.529,33.167 14.322 C 33.167 14.047,33.046 14.000,32.333 14.000 C 31.556 14.000,31.500 13.972,31.500 13.583 C 31.500 13.179,31.467 13.167,30.333 13.167 C 29.200 13.167,29.167 13.155,29.167 12.750 C 29.167 12.335,29.160 12.333,27.595 12.333 C 26.092 12.333,26.021 12.317,25.970 11.958 L 25.917 11.583 20.822 11.539 C 18.020 11.515,15.676 11.546,15.613 11.609 M61.113 11.609 C 61.051 11.671,61.000 11.860,61.000 12.028 C 61.000 12.303,60.841 12.333,59.417 12.333 C 57.839 12.333,57.833 12.335,57.833 12.750 C 57.833 13.155,57.800 13.167,56.667 13.167 C 55.533 13.167,55.500 13.179,55.500 13.583 C 55.500 13.972,55.444 14.000,54.667 14.000 C 53.944 14.000,53.833 14.044,53.833 14.333 C 53.833 14.617,53.722 14.667,53.083 14.667 C 52.394 14.667,52.333 14.701,52.333 15.083 C 52.333 15.417,52.250 15.500,51.917 15.500 C 51.583 15.500,51.500 15.583,51.500 15.917 C 51.500 16.250,51.417 16.333,51.083 16.333 C 50.750 16.333,50.667 16.417,50.667 16.750 C 50.667 17.133,50.606 17.167,49.917 17.167 C 49.228 17.167,49.167 17.201,49.167 17.583 C 49.167 17.917,49.083 18.000,48.750 18.000 C 48.444 18.000,48.333 18.089,48.333 18.333 C 48.333 18.578,48.222 18.667,47.917 18.667 C 47.583 18.667,47.500 18.750,47.500 19.083 C 47.500 19.417,47.417 19.500,47.083 19.500 C 46.753 19.500,46.667 19.584,46.667 19.905 C 46.667 20.198,46.563 20.325,46.292 20.363 C 46.051 20.398,45.898 20.551,45.863 20.792 C 45.829 21.033,45.695 21.167,45.488 21.167 C 45.218 21.167,45.167 21.287,45.167 21.917 C 45.167 22.606,45.133 22.667,44.750 22.667 C 44.417 22.667,44.333 22.750,44.333 23.083 C 44.333 23.417,44.250 23.500,43.917 23.500 C 43.528 23.500,43.500 23.556,43.500 24.333 C 43.500 25.111,43.472 25.167,43.083 25.167 C 42.701 25.167,42.667 25.228,42.667 25.917 C 42.667 26.556,42.617 26.667,42.333 26.667 C 42.032 26.667,42.000 26.778,42.000 27.815 C 42.000 28.901,41.977 28.970,41.583 29.068 C 41.169 29.172,41.167 29.184,41.167 31.087 L 41.167 33.000 40.750 33.000 L 40.333 33.000 40.333 37.000 L 40.333 41.000 40.750 41.000 L 41.167 41.000 41.167 43.000 L 41.167 45.000 41.583 45.000 C 41.988 45.000,42.000 45.033,42.000 46.167 C 42.000 47.222,42.032 47.333,42.333 47.333 C 42.622 47.333,42.667 47.444,42.667 48.167 C 42.667 48.939,42.696 49.000,43.074 49.000 C 43.442 49.000,43.487 49.077,43.533 49.792 C 43.576 50.467,43.638 50.591,43.958 50.637 C 44.199 50.671,44.333 50.805,44.333 51.012 C 44.333 51.244,44.449 51.333,44.750 51.333 C 45.139 51.333,45.167 51.389,45.167 52.167 C 45.167 52.879,45.213 53.000,45.488 53.000 C 45.695 53.000,45.829 53.134,45.863 53.375 C 45.898 53.616,46.051 53.769,46.292 53.803 C 46.533 53.837,46.667 53.971,46.667 54.178 C 46.667 54.410,46.783 54.500,47.083 54.500 C 47.417 54.500,47.500 54.583,47.500 54.917 C 47.500 55.250,47.583 55.333,47.917 55.333 C 48.250 55.333,48.333 55.417,48.333 55.750 C 48.333 56.083,48.417 56.167,48.750 56.167 C 49.083 56.167,49.167 56.250,49.167 56.583 C 49.167 56.884,49.256 57.000,49.488 57.000 C 49.695 57.000,49.829 57.134,49.863 57.375 C 49.909 57.695,50.033 57.757,50.708 57.801 C 51.364 57.843,51.500 57.907,51.500 58.176 C 51.500 58.411,51.615 58.500,51.917 58.500 C 52.250 58.500,52.333 58.583,52.333 58.917 C 52.333 59.299,52.394 59.333,53.083 59.333 C 53.772 59.333,53.833 59.367,53.833 59.750 C 53.833 60.139,53.889 60.167,54.667 60.167 C 55.444 60.167,55.500 60.194,55.500 60.583 C 55.500 60.988,55.533 61.000,56.667 61.000 C 57.722 61.000,57.833 61.032,57.833 61.333 C 57.833 61.643,57.944 61.667,59.405 61.667 C 60.908 61.667,60.979 61.683,61.030 62.042 L 61.083 62.417 66.708 62.461 L 72.333 62.504 72.333 62.086 C 72.333 61.668,72.337 61.667,73.917 61.667 C 75.389 61.667,75.500 61.643,75.500 61.333 C 75.500 61.032,75.611 61.000,76.667 61.000 C 77.800 61.000,77.833 60.988,77.833 60.583 C 77.833 60.194,77.889 60.167,78.667 60.167 C 79.444 60.167,79.500 60.139,79.500 59.750 C 79.500 59.367,79.561 59.333,80.250 59.333 C 80.939 59.333,81.000 59.299,81.000 58.917 C 81.000 58.528,81.056 58.500,81.833 58.500 C 82.546 58.500,82.667 58.453,82.667 58.178 C 82.667 57.971,82.801 57.837,83.042 57.803 C 83.283 57.769,83.436 57.616,83.470 57.375 C 83.504 57.134,83.638 57.000,83.845 57.000 C 84.077 57.000,84.167 56.884,84.167 56.583 C 84.167 56.250,84.250 56.167,84.583 56.167 C 84.917 56.167,85.000 56.083,85.000 55.750 C 85.000 55.417,85.083 55.333,85.417 55.333 C 85.750 55.333,85.833 55.250,85.833 54.917 C 85.833 54.583,85.917 54.500,86.250 54.500 C 86.551 54.500,86.667 54.410,86.667 54.178 C 86.667 53.971,86.801 53.837,87.042 53.803 C 87.283 53.769,87.436 53.616,87.470 53.375 C 87.504 53.134,87.638 53.000,87.845 53.000 C 88.077 53.000,88.167 52.884,88.167 52.583 C 88.167 52.250,88.250 52.167,88.583 52.167 C 88.973 52.167,89.000 52.112,89.000 51.326 C 89.000 50.750,89.066 50.494,89.208 50.512 C 89.673 50.573,89.833 50.484,89.833 50.167 C 89.833 49.922,89.944 49.833,90.250 49.833 C 90.639 49.833,90.667 49.778,90.667 49.000 C 90.667 48.222,90.694 48.167,91.083 48.167 C 91.466 48.167,91.500 48.106,91.500 47.417 C 91.500 46.778,91.549 46.667,91.833 46.667 C 92.145 46.667,92.167 46.556,92.167 44.993 C 92.167 43.750,92.220 43.326,92.375 43.346 C 93.015 43.429,93.005 43.537,92.960 37.042 L 92.917 30.750 92.542 30.697 C 92.183 30.646,92.167 30.575,92.167 29.072 C 92.167 27.626,92.141 27.500,91.842 27.500 C 91.574 27.500,91.510 27.364,91.467 26.708 C 91.424 26.033,91.362 25.909,91.042 25.863 C 90.717 25.817,90.667 25.711,90.667 25.072 C 90.667 24.401,90.630 24.333,90.262 24.333 C 89.968 24.333,89.842 24.230,89.803 23.958 C 89.769 23.720,89.616 23.564,89.384 23.531 C 89.075 23.487,89.010 23.357,88.967 22.698 C 88.924 22.033,88.861 21.909,88.542 21.863 C 88.301 21.829,88.167 21.695,88.167 21.488 C 88.167 21.278,88.052 21.167,87.833 21.167 C 87.589 21.167,87.500 21.056,87.500 20.750 C 87.500 20.417,87.417 20.333,87.083 20.333 C 86.750 20.333,86.667 20.250,86.667 19.917 C 86.667 19.583,86.583 19.500,86.250 19.500 C 85.917 19.500,85.833 19.417,85.833 19.083 C 85.833 18.750,85.750 18.667,85.417 18.667 C 85.111 18.667,85.000 18.578,85.000 18.333 C 85.000 18.089,84.889 18.000,84.583 18.000 C 84.250 18.000,84.167 17.917,84.167 17.583 C 84.167 17.278,84.078 17.167,83.833 17.167 C 83.589 17.167,83.500 17.056,83.500 16.750 C 83.500 16.361,83.444 16.333,82.667 16.333 C 81.889 16.333,81.833 16.306,81.833 15.917 C 81.833 15.583,81.750 15.500,81.417 15.500 C 81.083 15.500,81.000 15.417,81.000 15.083 C 81.000 14.701,80.939 14.667,80.250 14.667 C 79.611 14.667,79.500 14.617,79.500 14.333 C 79.500 14.044,79.389 14.000,78.667 14.000 C 77.889 14.000,77.833 13.972,77.833 13.583 C 77.833 13.179,77.800 13.167,76.667 13.167 C 75.533 13.167,75.500 13.155,75.500 12.750 C 75.500 12.335,75.494 12.333,73.928 12.333 C 72.425 12.333,72.354 12.317,72.303 11.958 L 72.250 11.583 66.738 11.539 C 63.707 11.515,61.176 11.547,61.113 11.609 M117.833 11.917 C 117.833 12.324,117.806 12.333,116.583 12.333 C 115.361 12.333,115.333 12.343,115.333 12.750 C 115.333 13.133,115.272 13.167,114.583 13.167 C 113.894 13.167,113.833 13.201,113.833 13.583 C 113.833 13.972,113.778 14.000,113.000 14.000 C 112.295 14.000,112.167 14.048,112.167 14.314 C 112.167 14.516,112.019 14.656,111.750 14.707 C 111.336 14.787,111.333 14.779,111.333 13.560 L 111.333 12.333 104.583 12.333 L 97.833 12.333 97.833 36.667 L 97.833 61.000 105.000 61.000 L 112.167 61.000 112.167 46.250 L 112.167 31.500 112.583 31.500 C 112.991 31.500,113.000 31.472,113.000 30.250 C 113.000 29.028,113.009 29.000,113.417 29.000 C 113.799 29.000,113.833 28.939,113.833 28.250 C 113.833 27.611,113.883 27.500,114.167 27.500 C 114.411 27.500,114.500 27.389,114.500 27.083 C 114.500 26.750,114.583 26.667,114.917 26.667 C 115.250 26.667,115.333 26.583,115.333 26.250 C 115.333 25.861,115.389 25.833,116.167 25.833 C 116.889 25.833,117.000 25.789,117.000 25.500 C 117.000 25.190,117.111 25.167,118.583 25.167 C 120.161 25.167,120.167 25.165,120.167 24.750 C 120.167 24.417,120.250 24.333,120.583 24.333 C 120.917 24.333,121.000 24.417,121.000 24.750 C 121.000 25.155,121.033 25.167,122.167 25.167 C 123.222 25.167,123.333 25.198,123.333 25.500 C 123.333 25.789,123.444 25.833,124.167 25.833 C 124.944 25.833,125.000 25.861,125.000 26.250 C 125.000 26.583,125.083 26.667,125.417 26.667 C 125.750 26.667,125.833 26.750,125.833 27.083 C 125.833 27.389,125.922 27.500,126.167 27.500 C 126.451 27.500,126.500 27.611,126.500 28.250 C 126.500 28.939,126.534 29.000,126.917 29.000 C 127.324 29.000,127.333 29.028,127.333 30.250 C 127.333 31.472,127.343 31.500,127.750 31.500 L 128.167 31.500 128.167 46.250 L 128.167 61.000 135.333 61.000 L 142.500 61.000 142.500 45.833 L 142.500 30.667 142.917 30.667 C 143.306 30.667,143.333 30.611,143.333 29.833 C 143.333 29.056,143.361 29.000,143.750 29.000 C 144.133 29.000,144.167 28.939,144.167 28.250 C 144.167 27.611,144.216 27.500,144.500 27.500 C 144.744 27.500,144.833 27.389,144.833 27.083 C 144.833 26.750,144.917 26.667,145.250 26.667 C 145.583 26.667,145.667 26.583,145.667 26.250 C 145.667 25.861,145.722 25.833,146.500 25.833 C 147.222 25.833,147.333 25.789,147.333 25.500 C 147.333 25.198,147.444 25.167,148.500 25.167 C 149.633 25.167,149.667 25.155,149.667 24.750 C 149.667 24.361,149.722 24.333,150.500 24.333 C 151.278 24.333,151.333 24.361,151.333 24.750 C 151.333 25.155,151.367 25.167,152.500 25.167 C 153.556 25.167,153.667 25.198,153.667 25.500 C 153.667 25.789,153.778 25.833,154.500 25.833 C 155.278 25.833,155.333 25.861,155.333 26.250 C 155.333 26.583,155.417 26.667,155.750 26.667 C 156.083 26.667,156.167 26.750,156.167 27.083 C 156.167 27.389,156.256 27.500,156.500 27.500 C 156.784 27.500,156.833 27.611,156.833 28.250 C 156.833 28.939,156.867 29.000,157.250 29.000 C 157.657 29.000,157.667 29.028,157.667 30.250 C 157.667 31.472,157.676 31.500,158.083 31.500 L 158.500 31.500 158.500 46.250 L 158.500 61.000 165.667 61.000 L 172.833 61.000 172.833 43.417 L 172.833 25.833 172.417 25.833 C 172.001 25.833,172.000 25.828,172.000 24.250 C 172.000 22.778,171.977 22.667,171.667 22.667 C 171.383 22.667,171.333 22.556,171.333 21.917 C 171.333 21.228,171.299 21.167,170.917 21.167 C 170.528 21.167,170.500 21.111,170.500 20.333 C 170.500 19.556,170.472 19.500,170.083 19.500 C 169.701 19.500,169.667 19.439,169.667 18.750 C 169.667 18.061,169.633 18.000,169.250 18.000 C 168.917 18.000,168.833 17.917,168.833 17.583 C 168.833 17.250,168.750 17.167,168.417 17.167 C 168.083 17.167,168.000 17.083,168.000 16.750 C 168.000 16.449,167.910 16.333,167.678 16.333 C 167.471 16.333,167.337 16.199,167.303 15.958 C 167.270 15.721,167.116 15.564,166.885 15.531 C 166.658 15.499,166.501 15.342,166.469 15.115 C 166.436 14.884,166.279 14.730,166.042 14.697 C 165.801 14.663,165.667 14.529,165.667 14.322 C 165.667 14.047,165.546 14.000,164.833 14.000 C 164.056 14.000,164.000 13.972,164.000 13.583 C 164.000 13.201,163.939 13.167,163.250 13.167 C 162.561 13.167,162.500 13.133,162.500 12.750 C 162.500 12.343,162.472 12.333,161.250 12.333 C 160.028 12.333,160.000 12.324,160.000 11.917 L 160.000 11.500 154.083 11.500 L 148.167 11.500 148.167 11.911 C 148.167 12.316,148.145 12.322,146.542 12.369 C 145.000 12.414,144.914 12.436,144.863 12.792 C 144.817 13.116,144.711 13.167,144.072 13.167 C 143.395 13.167,143.333 13.202,143.333 13.583 C 143.333 13.972,143.278 14.000,142.500 14.000 C 141.778 14.000,141.667 14.044,141.667 14.333 C 141.667 14.556,141.556 14.667,141.333 14.667 C 141.089 14.667,141.000 14.778,141.000 15.083 C 141.000 15.472,140.944 15.500,140.167 15.500 C 139.389 15.500,139.333 15.528,139.333 15.917 C 139.333 16.250,139.250 16.333,138.917 16.333 C 138.583 16.333,138.500 16.417,138.500 16.750 C 138.500 17.083,138.417 17.167,138.083 17.167 C 137.750 17.167,137.667 17.083,137.667 16.750 C 137.667 16.449,137.577 16.333,137.345 16.333 C 137.138 16.333,137.004 16.199,136.970 15.958 C 136.936 15.721,136.783 15.564,136.552 15.531 C 136.325 15.499,136.168 15.342,136.135 15.115 C 136.102 14.884,135.946 14.730,135.708 14.697 C 135.467 14.663,135.333 14.529,135.333 14.322 C 135.333 14.047,135.212 14.000,134.500 14.000 C 133.722 14.000,133.667 13.972,133.667 13.583 C 133.667 13.201,133.606 13.167,132.917 13.167 C 132.228 13.167,132.167 13.133,132.167 12.750 C 132.167 12.343,132.139 12.333,130.917 12.333 C 129.694 12.333,129.667 12.324,129.667 11.917 L 129.667 11.500 123.750 11.500 L 117.833 11.500 117.833 11.917 M207.017 22.335 C 205.042 23.046,205.134 22.274,205.197 37.583 C 205.253 51.049,205.229 50.654,206.035 51.361 C 206.736 51.976,209.346 51.857,210.075 51.177 C 210.263 51.002,210.629 50.805,210.888 50.741 C 211.148 50.676,211.398 50.525,211.445 50.403 C 211.491 50.282,211.804 50.093,212.140 49.983 C 212.475 49.872,212.848 49.644,212.968 49.474 C 213.088 49.305,213.299 49.167,213.437 49.167 C 213.576 49.167,213.935 48.979,214.235 48.750 C 214.536 48.521,214.925 48.333,215.101 48.333 C 215.276 48.333,215.509 48.190,215.619 48.015 C 215.728 47.840,216.047 47.646,216.327 47.585 C 216.607 47.523,216.913 47.329,217.007 47.153 C 217.101 46.977,217.320 46.833,217.493 46.833 C 217.666 46.833,218.031 46.646,218.303 46.417 C 218.575 46.188,218.907 46.000,219.040 46.000 C 219.173 46.000,219.411 45.857,219.570 45.682 C 219.728 45.507,220.054 45.314,220.293 45.254 C 220.532 45.194,220.945 44.962,221.210 44.739 C 221.475 44.516,221.839 44.333,222.018 44.333 C 222.197 44.333,222.385 44.227,222.435 44.096 C 222.485 43.966,222.820 43.742,223.180 43.598 C 223.539 43.454,223.833 43.262,223.833 43.171 C 223.833 43.081,224.040 42.956,224.292 42.894 C 224.544 42.833,224.962 42.607,225.221 42.391 C 225.480 42.176,225.834 42.000,226.007 42.000 C 226.180 42.000,226.395 41.863,226.484 41.696 C 226.574 41.529,226.944 41.303,227.306 41.194 C 227.669 41.086,228.005 40.895,228.053 40.770 C 228.101 40.645,228.335 40.494,228.574 40.434 C 228.813 40.374,229.157 40.177,229.338 39.996 C 229.519 39.815,229.803 39.667,229.970 39.667 C 230.137 39.667,230.432 39.498,230.625 39.292 C 230.819 39.085,231.076 38.824,231.197 38.710 C 232.034 37.925,232.251 37.429,232.086 36.679 C 231.955 36.082,230.753 34.789,229.989 34.423 C 228.945 33.923,228.252 33.505,228.081 33.273 C 227.988 33.147,227.669 32.990,227.371 32.925 C 227.074 32.860,226.754 32.662,226.659 32.486 C 226.565 32.311,226.351 32.167,226.183 32.167 C 226.016 32.167,225.698 32.025,225.478 31.852 C 225.258 31.679,224.798 31.420,224.456 31.277 C 224.113 31.134,223.833 30.944,223.833 30.855 C 223.833 30.766,223.608 30.644,223.334 30.583 C 223.059 30.523,222.740 30.342,222.625 30.180 C 222.511 30.019,222.209 29.836,221.954 29.773 C 221.700 29.710,221.343 29.510,221.162 29.329 C 220.981 29.148,220.727 29.000,220.596 29.000 C 220.466 29.000,220.147 28.824,219.888 28.609 C 219.629 28.393,219.210 28.167,218.958 28.106 C 218.706 28.044,218.500 27.924,218.500 27.838 C 218.500 27.752,218.162 27.533,217.750 27.351 C 217.338 27.168,217.000 26.945,217.000 26.856 C 217.000 26.766,216.785 26.646,216.523 26.588 C 216.260 26.531,215.891 26.340,215.703 26.165 C 215.515 25.990,215.168 25.798,214.931 25.739 C 214.694 25.679,214.500 25.572,214.500 25.500 C 214.500 25.429,214.177 25.218,213.782 25.033 C 213.388 24.847,212.966 24.576,212.845 24.431 C 212.725 24.286,212.489 24.167,212.322 24.167 C 212.154 24.167,211.815 23.979,211.568 23.750 C 211.320 23.521,210.979 23.333,210.809 23.333 C 210.639 23.333,210.351 23.185,210.170 23.003 C 209.988 22.822,209.500 22.587,209.084 22.483 C 208.668 22.378,208.287 22.227,208.237 22.146 C 208.117 21.951,208.061 21.960,207.017 22.335 M69.833 25.500 C 69.833 25.804,69.944 25.833,71.083 25.833 C 72.306 25.833,72.333 25.843,72.333 26.250 C 72.333 26.556,72.422 26.667,72.667 26.667 C 72.911 26.667,73.000 26.778,73.000 27.083 C 73.000 27.417,73.083 27.500,73.417 27.500 C 73.750 27.500,73.833 27.583,73.833 27.917 C 73.833 28.250,73.917 28.333,74.250 28.333 C 74.556 28.333,74.667 28.422,74.667 28.667 C 74.667 28.911,74.778 29.000,75.083 29.000 C 75.417 29.000,75.500 29.083,75.500 29.417 C 75.500 29.714,75.590 29.833,75.815 29.833 C 76.013 29.833,76.170 29.989,76.235 30.250 C 76.301 30.514,76.457 30.667,76.661 30.667 C 76.925 30.667,76.991 30.805,77.033 31.458 C 77.076 32.134,77.138 32.258,77.458 32.303 C 77.817 32.354,77.833 32.425,77.833 33.928 C 77.833 35.494,77.835 35.500,78.250 35.500 C 78.665 35.500,78.667 35.506,78.667 37.083 C 78.667 38.661,78.665 38.667,78.250 38.667 C 77.835 38.667,77.833 38.672,77.833 40.250 C 77.833 41.828,77.832 41.833,77.417 41.833 C 77.028 41.833,77.000 41.889,77.000 42.667 C 77.000 43.379,76.953 43.500,76.678 43.500 C 76.501 43.500,76.308 43.650,76.250 43.833 C 76.192 44.017,75.999 44.167,75.822 44.167 C 75.590 44.167,75.500 44.283,75.500 44.583 C 75.500 44.917,75.417 45.000,75.083 45.000 C 74.750 45.000,74.667 45.083,74.667 45.417 C 74.667 45.750,74.583 45.833,74.250 45.833 C 73.917 45.833,73.833 45.917,73.833 46.250 C 73.833 46.583,73.750 46.667,73.417 46.667 C 73.111 46.667,73.000 46.756,73.000 47.000 C 73.000 47.222,72.889 47.333,72.667 47.333 C 72.422 47.333,72.333 47.444,72.333 47.750 C 72.333 48.157,72.306 48.167,71.083 48.167 C 69.861 48.167,69.833 48.176,69.833 48.583 L 69.833 49.000 66.667 49.000 L 63.500 49.000 63.500 48.583 C 63.500 48.194,63.444 48.167,62.667 48.167 C 61.889 48.167,61.833 48.139,61.833 47.750 C 61.833 47.367,61.772 47.333,61.083 47.333 C 60.444 47.333,60.333 47.284,60.333 47.000 C 60.333 46.756,60.222 46.667,59.917 46.667 C 59.583 46.667,59.500 46.583,59.500 46.250 C 59.500 45.917,59.417 45.833,59.083 45.833 C 58.750 45.833,58.667 45.750,58.667 45.417 C 58.667 45.083,58.583 45.000,58.250 45.000 C 57.917 45.000,57.833 44.917,57.833 44.583 C 57.833 44.278,57.744 44.167,57.500 44.167 C 57.216 44.167,57.167 44.056,57.167 43.417 C 57.167 42.731,57.131 42.667,56.757 42.667 C 56.365 42.667,56.346 42.617,56.299 41.458 C 56.254 40.350,56.219 40.246,55.875 40.197 C 55.501 40.144,55.500 40.133,55.500 36.988 L 55.500 33.833 55.917 33.833 C 56.321 33.833,56.333 33.800,56.333 32.667 C 56.333 31.533,56.345 31.500,56.750 31.500 C 57.139 31.500,57.167 31.444,57.167 30.667 C 57.167 29.944,57.211 29.833,57.500 29.833 C 57.744 29.833,57.833 29.722,57.833 29.417 C 57.833 29.083,57.917 29.000,58.250 29.000 C 58.556 29.000,58.667 28.911,58.667 28.667 C 58.667 28.422,58.778 28.333,59.083 28.333 C 59.417 28.333,59.500 28.250,59.500 27.917 C 59.500 27.583,59.583 27.500,59.917 27.500 C 60.250 27.500,60.333 27.417,60.333 27.083 C 60.333 26.701,60.394 26.667,61.083 26.667 C 61.772 26.667,61.833 26.633,61.833 26.250 C 61.833 25.861,61.889 25.833,62.667 25.833 C 63.389 25.833,63.500 25.789,63.500 25.500 C 63.500 25.178,63.611 25.167,66.667 25.167 C 69.722 25.167,69.833 25.178,69.833 25.500 " stroke="none" fill="#fcfbfb" fill-rule="evenodd"></path><path id="path2" d="M205.961 21.667 C 205.847 21.850,205.675 22.000,205.579 22.000 C 205.482 22.000,205.126 22.333,204.785 22.740 L 204.167 23.480 204.167 37.081 L 204.167 50.683 204.583 51.069 C 204.813 51.281,205.000 51.537,205.000 51.638 C 205.000 51.739,205.164 51.909,205.365 52.017 C 205.565 52.124,205.879 52.352,206.063 52.523 C 206.557 52.983,209.069 52.967,209.667 52.500 C 209.896 52.321,210.180 52.172,210.299 52.170 C 210.418 52.168,210.696 51.986,210.917 51.765 C 211.138 51.544,211.548 51.313,211.827 51.251 C 212.107 51.190,212.413 50.996,212.507 50.820 C 212.602 50.643,212.855 50.500,213.072 50.500 C 213.288 50.500,213.642 50.314,213.858 50.086 C 214.073 49.859,214.421 49.671,214.630 49.670 C 214.839 49.668,215.052 49.558,215.103 49.425 C 215.154 49.292,215.527 49.057,215.931 48.902 C 216.336 48.748,216.667 48.527,216.667 48.413 C 216.667 48.298,216.931 48.154,217.254 48.094 C 217.577 48.033,217.932 47.837,218.044 47.658 C 218.155 47.480,218.364 47.333,218.508 47.333 C 218.651 47.333,219.023 47.146,219.333 46.917 C 219.644 46.687,219.993 46.500,220.109 46.500 C 220.225 46.500,220.455 46.359,220.619 46.187 C 220.782 46.015,221.104 45.818,221.333 45.748 C 221.563 45.678,221.962 45.444,222.221 45.227 C 222.480 45.011,222.832 44.833,223.003 44.833 C 223.174 44.833,223.416 44.689,223.540 44.512 C 223.664 44.335,223.962 44.141,224.204 44.080 C 224.445 44.020,224.772 43.827,224.930 43.652 C 225.089 43.477,225.357 43.333,225.527 43.333 C 225.697 43.333,225.999 43.146,226.198 42.917 C 226.397 42.688,226.721 42.500,226.917 42.500 C 227.113 42.500,227.436 42.312,227.636 42.083 C 227.835 41.854,228.148 41.667,228.332 41.667 C 228.516 41.667,228.809 41.524,228.984 41.350 C 229.158 41.176,229.477 40.977,229.692 40.909 C 229.907 40.841,230.181 40.646,230.301 40.476 C 230.421 40.306,230.663 40.167,230.838 40.167 C 231.446 40.167,232.667 38.739,232.667 38.029 C 232.667 37.683,232.748 37.318,232.848 37.219 C 232.978 37.088,232.978 37.006,232.848 36.926 C 232.748 36.864,232.667 36.486,232.667 36.085 C 232.667 35.404,232.363 34.833,231.999 34.833 C 231.920 34.833,231.812 34.694,231.758 34.524 C 231.704 34.354,231.380 34.089,231.038 33.936 C 230.084 33.510,229.410 33.113,229.096 32.792 C 228.939 32.632,228.609 32.452,228.363 32.393 C 228.118 32.335,227.789 32.154,227.632 31.991 C 227.476 31.829,227.120 31.646,226.841 31.585 C 226.562 31.524,226.333 31.403,226.333 31.317 C 226.333 31.230,226.127 31.070,225.875 30.961 C 225.623 30.852,225.205 30.591,224.946 30.381 C 224.686 30.172,224.368 30.000,224.237 30.000 C 224.107 30.000,223.852 29.852,223.671 29.671 C 223.490 29.490,223.134 29.290,222.879 29.227 C 222.625 29.164,222.319 28.975,222.199 28.806 C 222.079 28.638,221.841 28.500,221.670 28.500 C 221.499 28.500,221.136 28.313,220.864 28.083 C 220.591 27.854,220.278 27.667,220.167 27.667 C 220.056 27.667,219.742 27.479,219.470 27.250 C 219.197 27.021,218.833 26.833,218.660 26.833 C 218.487 26.833,218.268 26.689,218.174 26.514 C 218.080 26.338,217.758 26.140,217.460 26.074 C 217.161 26.009,216.825 25.824,216.712 25.663 C 216.600 25.503,216.317 25.323,216.083 25.265 C 215.849 25.206,215.510 25.010,215.329 24.829 C 215.148 24.648,214.880 24.500,214.732 24.500 C 214.585 24.500,214.242 24.313,213.970 24.083 C 213.697 23.854,213.344 23.667,213.184 23.667 C 213.024 23.667,212.730 23.479,212.531 23.250 C 212.327 23.016,211.989 22.833,211.757 22.833 C 211.524 22.833,211.272 22.697,211.177 22.519 C 211.084 22.346,210.817 22.157,210.583 22.098 C 210.350 22.040,210.010 21.843,209.829 21.662 C 209.332 21.166,206.272 21.169,205.961 21.667 M209.250 21.913 C 209.708 22.138,210.168 22.325,210.271 22.328 C 210.375 22.331,210.553 22.447,210.668 22.585 C 210.783 22.724,211.186 22.987,211.564 23.169 C 211.941 23.352,212.550 23.685,212.917 23.911 C 213.283 24.137,213.771 24.419,214.000 24.539 C 214.381 24.739,214.828 25.000,217.143 26.376 C 217.569 26.629,218.142 26.951,218.417 27.091 C 218.692 27.231,219.254 27.564,219.667 27.831 C 220.079 28.097,220.717 28.472,221.083 28.663 C 221.450 28.854,222.050 29.193,222.417 29.416 C 222.783 29.639,223.421 30.013,223.833 30.247 C 224.246 30.482,224.958 30.896,225.417 31.169 C 225.875 31.442,226.438 31.758,226.667 31.871 C 226.896 31.984,227.121 32.120,227.167 32.173 C 227.213 32.226,227.775 32.560,228.417 32.915 C 231.864 34.822,232.500 35.474,232.500 37.102 C 232.500 38.551,231.601 39.528,229.215 40.673 C 228.829 40.858,228.468 41.083,228.412 41.174 C 228.356 41.264,228.072 41.454,227.780 41.595 C 226.913 42.014,226.162 42.453,225.863 42.715 C 225.709 42.850,225.396 43.016,225.167 43.083 C 224.938 43.150,224.600 43.341,224.417 43.508 C 224.233 43.675,223.896 43.892,223.667 43.990 C 223.438 44.089,222.875 44.394,222.417 44.669 C 221.958 44.945,221.345 45.280,221.053 45.416 C 220.761 45.551,220.472 45.744,220.410 45.845 C 220.348 45.945,219.986 46.172,219.607 46.349 C 219.227 46.526,218.579 46.893,218.167 47.165 C 217.754 47.437,217.238 47.738,217.020 47.834 C 216.802 47.930,216.415 48.156,216.161 48.337 C 215.907 48.519,215.611 48.667,215.505 48.667 C 215.398 48.667,215.072 48.849,214.780 49.072 C 214.488 49.295,214.061 49.558,213.833 49.657 C 213.604 49.756,213.117 50.024,212.750 50.253 C 212.040 50.696,211.149 51.203,209.670 52.005 C 207.856 52.989,205.801 52.460,204.906 50.779 L 204.494 50.004 204.539 36.877 L 204.583 23.750 205.018 23.083 C 205.934 21.677,207.750 21.175,209.250 21.913 " stroke="none" fill="#dc444c" fill-rule="evenodd"></path><path id="path3" d="M206.343 21.958 C 205.770 22.253,205.297 22.654,205.018 23.083 L 204.583 23.750 204.539 36.877 L 204.494 50.004 204.906 50.779 C 205.801 52.460,207.856 52.989,209.670 52.005 C 211.149 51.203,212.040 50.696,212.750 50.253 C 213.117 50.024,213.604 49.756,213.833 49.657 C 214.061 49.558,214.488 49.295,214.780 49.072 C 215.072 48.849,215.398 48.667,215.505 48.667 C 215.611 48.667,215.907 48.519,216.161 48.337 C 216.415 48.156,216.802 47.930,217.020 47.834 C 217.238 47.738,217.754 47.437,218.167 47.165 C 218.579 46.893,219.227 46.526,219.607 46.349 C 219.986 46.172,220.348 45.945,220.410 45.845 C 220.472 45.744,220.761 45.551,221.053 45.416 C 221.345 45.280,221.958 44.945,222.417 44.669 C 222.875 44.394,223.438 44.089,223.667 43.990 C 223.896 43.892,224.233 43.675,224.417 43.508 C 224.600 43.341,224.938 43.150,225.167 43.083 C 225.396 43.016,225.709 42.850,225.863 42.715 C 226.162 42.453,226.913 42.014,227.780 41.595 C 228.072 41.454,228.356 41.264,228.412 41.174 C 228.468 41.083,228.829 40.858,229.215 40.673 C 231.601 39.528,232.500 38.551,232.500 37.102 C 232.500 35.474,231.864 34.822,228.417 32.915 C 227.775 32.560,227.213 32.226,227.167 32.173 C 227.121 32.120,226.896 31.984,226.667 31.871 C 226.438 31.758,225.875 31.442,225.417 31.169 C 224.958 30.896,224.246 30.482,223.833 30.247 C 223.421 30.013,222.783 29.639,222.417 29.416 C 222.050 29.193,221.450 28.854,221.083 28.663 C 220.717 28.472,220.079 28.097,219.667 27.831 C 219.254 27.564,218.692 27.231,218.417 27.091 C 218.142 26.951,217.569 26.629,217.143 26.376 C 214.828 25.000,214.381 24.739,214.000 24.539 C 213.771 24.419,213.283 24.137,212.917 23.911 C 212.550 23.685,211.941 23.352,211.564 23.169 C 211.186 22.987,210.783 22.724,210.668 22.585 C 210.553 22.447,210.375 22.331,210.271 22.328 C 210.168 22.325,209.708 22.138,209.250 21.913 C 208.171 21.382,207.441 21.393,206.343 21.958 M208.991 22.073 C 209.100 22.204,209.410 22.360,209.680 22.420 C 209.950 22.479,210.263 22.619,210.377 22.731 C 210.490 22.843,211.169 23.268,211.884 23.676 C 212.600 24.083,213.537 24.620,213.968 24.868 C 214.398 25.116,215.012 25.443,215.333 25.595 C 215.654 25.747,215.954 25.927,216.000 25.996 C 216.046 26.065,216.383 26.285,216.750 26.484 C 217.117 26.683,217.717 27.028,218.083 27.251 C 218.450 27.474,219.050 27.813,219.417 28.004 C 219.783 28.195,220.421 28.568,220.833 28.833 C 221.246 29.099,221.883 29.472,222.250 29.663 C 222.617 29.854,223.217 30.193,223.583 30.416 C 223.950 30.639,224.588 31.014,225.000 31.250 C 225.412 31.486,226.050 31.861,226.417 32.083 C 226.783 32.306,227.346 32.612,227.667 32.763 C 227.987 32.914,228.287 33.094,228.333 33.163 C 228.379 33.232,228.717 33.452,229.083 33.652 C 231.930 35.204,232.248 35.609,232.184 37.605 C 232.165 38.187,231.162 39.324,230.260 39.785 C 229.979 39.929,229.713 40.103,229.667 40.171 C 229.621 40.240,229.321 40.420,229.000 40.572 C 228.436 40.839,227.566 41.329,226.225 42.136 C 224.649 43.084,224.214 43.339,223.667 43.636 C 222.309 44.373,221.403 44.916,221.196 45.118 C 221.075 45.236,220.841 45.333,220.675 45.333 C 220.510 45.333,220.275 45.452,220.155 45.598 C 220.034 45.743,219.656 45.974,219.314 46.111 C 218.972 46.247,218.651 46.466,218.601 46.596 C 218.551 46.727,218.388 46.833,218.239 46.833 C 218.090 46.833,217.732 47.002,217.442 47.208 C 216.809 47.659,216.156 48.032,215.208 48.484 C 214.819 48.670,214.500 48.893,214.500 48.981 C 214.500 49.068,214.285 49.187,214.023 49.245 C 213.760 49.303,213.398 49.487,213.218 49.655 C 213.038 49.822,212.709 50.015,212.487 50.083 C 212.265 50.151,211.957 50.317,211.803 50.452 C 211.649 50.587,211.274 50.837,210.970 51.006 C 210.456 51.294,210.084 51.474,208.725 52.094 C 207.529 52.639,205.845 51.921,205.167 50.576 L 204.750 49.750 204.702 37.333 L 204.654 24.917 205.084 23.810 C 205.705 22.215,208.191 21.109,208.991 22.073 " stroke="none" fill="#ec9ca4" fill-rule="evenodd"></path><path id="path4" d="M206.299 22.283 C 205.602 22.657,205.467 22.826,205.084 23.810 L 204.654 24.917 204.702 37.333 L 204.750 49.750 205.167 50.576 C 205.845 51.921,207.529 52.639,208.725 52.094 C 210.084 51.474,210.456 51.294,210.970 51.006 C 211.274 50.837,211.649 50.587,211.803 50.452 C 211.957 50.317,212.265 50.151,212.487 50.083 C 212.709 50.015,213.038 49.822,213.218 49.655 C 213.398 49.487,213.760 49.303,214.023 49.245 C 214.285 49.187,214.500 49.068,214.500 48.981 C 214.500 48.893,214.819 48.670,215.208 48.484 C 216.156 48.032,216.809 47.659,217.442 47.208 C 217.732 47.002,218.090 46.833,218.239 46.833 C 218.388 46.833,218.551 46.727,218.601 46.596 C 218.651 46.466,218.972 46.247,219.314 46.111 C 219.656 45.974,220.034 45.743,220.155 45.598 C 220.275 45.452,220.510 45.333,220.675 45.333 C 220.841 45.333,221.075 45.236,221.196 45.118 C 221.403 44.916,222.309 44.373,223.667 43.636 C 224.214 43.339,224.649 43.084,226.225 42.136 C 227.566 41.329,228.436 40.839,229.000 40.572 C 229.321 40.420,229.621 40.240,229.667 40.171 C 229.713 40.103,229.979 39.929,230.260 39.785 C 231.028 39.392,232.168 38.181,232.155 37.772 C 232.146 37.499,232.117 37.477,232.030 37.677 C 231.911 37.950,231.567 38.379,231.197 38.716 C 231.076 38.827,230.819 39.085,230.625 39.292 C 230.432 39.498,230.137 39.667,229.970 39.667 C 229.803 39.667,229.519 39.815,229.338 39.996 C 229.157 40.177,228.813 40.374,228.574 40.434 C 228.335 40.494,228.101 40.645,228.053 40.770 C 228.005 40.895,227.669 41.086,227.306 41.194 C 226.944 41.303,226.574 41.529,226.484 41.696 C 226.395 41.863,226.180 42.000,226.007 42.000 C 225.834 42.000,225.480 42.176,225.221 42.391 C 224.962 42.607,224.544 42.833,224.292 42.894 C 224.040 42.956,223.833 43.081,223.833 43.171 C 223.833 43.262,223.539 43.454,223.180 43.598 C 222.820 43.742,222.485 43.966,222.435 44.096 C 222.385 44.227,222.197 44.333,222.018 44.333 C 221.839 44.333,221.475 44.516,221.210 44.739 C 220.945 44.962,220.532 45.194,220.293 45.254 C 220.054 45.314,219.728 45.507,219.570 45.682 C 219.411 45.857,219.173 46.000,219.040 46.000 C 218.907 46.000,218.575 46.188,218.303 46.417 C 218.031 46.646,217.666 46.833,217.493 46.833 C 217.320 46.833,217.101 46.977,217.007 47.153 C 216.913 47.329,216.607 47.523,216.327 47.585 C 216.047 47.646,215.728 47.840,215.619 48.015 C 215.509 48.190,215.276 48.333,215.101 48.333 C 214.925 48.333,214.536 48.521,214.235 48.750 C 213.935 48.979,213.576 49.167,213.437 49.167 C 213.299 49.167,213.088 49.305,212.968 49.474 C 212.848 49.644,212.475 49.872,212.140 49.983 C 211.804 50.093,211.491 50.282,211.445 50.403 C 211.398 50.525,211.148 50.676,210.888 50.741 C 210.629 50.805,210.263 51.002,210.075 51.177 C 208.955 52.222,206.186 51.914,205.484 50.667 C 205.175 50.117,205.032 25.438,205.330 24.060 C 205.580 22.907,207.558 21.597,208.224 22.143 C 208.330 22.230,208.739 22.387,209.134 22.492 C 209.528 22.598,209.997 22.830,210.175 23.009 C 210.354 23.187,210.639 23.333,210.809 23.333 C 210.979 23.333,211.320 23.521,211.568 23.750 C 211.815 23.979,212.154 24.167,212.322 24.167 C 212.489 24.167,212.725 24.286,212.845 24.431 C 212.966 24.576,213.388 24.847,213.782 25.033 C 214.177 25.218,214.500 25.429,214.500 25.500 C 214.500 25.572,214.694 25.679,214.931 25.739 C 215.168 25.798,215.515 25.990,215.703 26.165 C 215.891 26.340,216.260 26.531,216.523 26.588 C 216.785 26.646,217.000 26.766,217.000 26.856 C 217.000 26.945,217.338 27.168,217.750 27.351 C 218.162 27.533,218.500 27.752,218.500 27.838 C 218.500 27.924,218.706 28.044,218.958 28.106 C 219.210 28.167,219.629 28.393,219.888 28.609 C 220.147 28.824,220.466 29.000,220.596 29.000 C 220.727 29.000,220.981 29.148,221.162 29.329 C 221.343 29.510,221.700 29.710,221.954 29.773 C 222.209 29.836,222.511 30.019,222.625 30.180 C 222.740 30.342,223.059 30.523,223.334 30.583 C 223.608 30.644,223.833 30.766,223.833 30.855 C 223.833 30.944,224.113 31.134,224.456 31.277 C 224.798 31.420,225.258 31.679,225.478 31.852 C 225.698 32.025,226.016 32.167,226.183 32.167 C 226.351 32.167,226.565 32.311,226.659 32.486 C 226.754 32.662,227.074 32.860,227.371 32.925 C 227.669 32.990,227.988 33.147,228.081 33.273 C 228.252 33.505,228.943 33.922,229.984 34.421 C 230.617 34.724,231.793 35.878,232.006 36.406 C 232.135 36.724,232.146 36.718,232.156 36.325 C 232.173 35.652,231.162 34.771,229.083 33.649 C 228.717 33.451,228.379 33.232,228.333 33.163 C 228.287 33.094,227.987 32.914,227.667 32.763 C 227.346 32.612,226.783 32.306,226.417 32.083 C 226.050 31.861,225.412 31.486,225.000 31.250 C 224.588 31.014,223.950 30.639,223.583 30.416 C 223.217 30.193,222.617 29.854,222.250 29.663 C 221.883 29.472,221.246 29.099,220.833 28.833 C 220.421 28.568,219.783 28.195,219.417 28.004 C 219.050 27.813,218.450 27.474,218.083 27.251 C 217.717 27.028,217.117 26.683,216.750 26.484 C 216.383 26.285,216.046 26.065,216.000 25.996 C 215.954 25.927,215.654 25.747,215.333 25.595 C 215.012 25.443,214.398 25.116,213.968 24.868 C 213.537 24.620,212.600 24.083,211.884 23.676 C 211.169 23.268,210.490 22.843,210.377 22.731 C 210.263 22.619,209.950 22.479,209.680 22.420 C 209.410 22.360,209.100 22.204,208.991 22.073 C 208.665 21.679,207.211 21.793,206.299 22.283 " stroke="none" fill="#f4c4c4" fill-rule="evenodd"></path></g></svg>